<svg width="600" height="634" viewBox="0 0 600 634" fill="none" xmlns="http://www.w3.org/2000/svg">
    <path d="M133.333 467.333C133.333 485.667 118.333 500.667 100 500.667C81.6667 500.667 66.6667 485.667 66.6667 467.333C66.6667 449 81.6667 434 100 434C118.333 434 133.333 449 133.333 467.333ZM200 467.333C181.667 467.333 166.667 482.333 166.667 500.667C166.667 519 181.667 534 200 534C218.333 534 233.333 519 233.333 500.667C233.333 482.333 218.333 467.333 200 467.333ZM33.3333 534C15 534 0 549 0 567.333C0 585.667 15 600.667 33.3333 600.667C51.6667 600.667 66.6667 585.667 66.6667 567.333C66.6667 549 51.6667 534 33.3333 534ZM133.333 567.333C115 567.333 100 582.333 100 600.667C100 619 115 634 133.333 634C151.667 634 166.667 619 166.667 600.667C166.667 582.333 151.667 567.333 133.333 567.333ZM411 24.6667L226.667 255.667L344.667 373.667L576 189.667C606 164.333 608.333 118.667 580.333 90.6667L510 20.3333C482 -7.66667 436.333 -5.33333 411 24.6667ZM179.667 350.667L250 420.667C263.333 434 284.667 434 297.667 420.667L321 397.333L203.333 279.333L179.667 303C173.417 309.359 169.915 317.918 169.915 326.833C169.915 335.749 173.417 344.308 179.667 350.667Z" fill="#FFA62F"/>
    </svg>
    